<svg
    width="12.7mm"
    height="12.7mm"
    viewBox="0 0 12.7 12.7"
    version="1.1"
    id="svg5"
    style="fill:#ffffff;fill-opacity:0.4;"
    xml:space="preserve"
    xmlns="http://www.w3.org/2000/svg"
    xmlns:svg="http://www.w3.org/2000/svg">
    <g id="g2462">
        <path
        id="circle549"
        clip-path="none"
        style="display:inline;stroke-width:0.804733"
        d="M 6.3500001 1.6860471 A 4.6639528 4.6639528 0 0 0 1.724382 5.7559989 L 3.9891776 5.7559989 A 2.4360265 2.4360265 0 0 1 6.3500001 3.9140259 A 2.4360265 2.4360265 0 0 1 8.7108227 5.7559989 L 10.975998 5.7559989 A 4.6639528 4.6639528 0 0 0 6.3500001 1.6860471 z M 1.724382 6.9440012 A 4.6639528 4.6639528 0 0 0 6.3500001 11.013953 A 4.6639528 4.6639528 0 0 0 10.975998 6.9440012 L 8.7108227 6.9440012 A 2.4360265 2.4360265 0 0 1 6.3500001 8.7859742 A 2.4360265 2.4360265 0 0 1 3.9891776 6.9440012 L 1.724382 6.9440012 z "
        transform="matrix(1.361506,0,0,1.361506,-2.2955633,-2.2955632)"
        />
        <circle
        style="display:inline;stroke-width:0.360231"
        id="path545"
        cx="6.3499994"
        cy="6.3499999"
        r="2.0877752"
        />
    </g>
</svg>
