<?xml version="1.0" encoding="utf-8"?>
<!-- Generator: Adobe Illustrator 18.1.1, SVG Export Plug-In . SVG Version: 6.00 Build 0)  -->
<svg version="1.1" id="Layer_1" xmlns="http://www.w3.org/2000/svg" xmlns:xlink="http://www.w3.org/1999/xlink" x="0px" y="0px"
	 viewBox="0 0 256 256" enable-background="new 0 0 256 256" xml:space="preserve">
<g>
	<g>
		<path d="M180.4,155.3H75.6c-3.8,0-6.8-3-6.8-6.8v-15.7H46.1c-6.1,0-9.1-7.4-4.8-11.7l81.9-81.9c2.6-2.6,7-2.6,9.7,0l81.9,81.9
			c4.3,4.3,1.3,11.7-4.8,11.7h-22.6v15.6C187.3,152.2,184.2,155.3,180.4,155.3z"/>
	</g>
	<g>
		<path d="M180.4,218.8H75.6c-3.8,0-6.8-3-6.8-6.8v-33.5c0-3.8,3-6.8,6.8-6.8h104.8c3.8,0,6.8,3,6.8,6.8V212
			C187.3,215.6,184.2,218.8,180.4,218.8z"/>
	</g>
</g>
</svg>
