<?xml version="1.0" encoding="utf-8"?>
<!-- Generator: Adobe Illustrator 18.1.1, SVG Export Plug-In . SVG Version: 6.00 Build 0)  -->
<svg version="1.1" id="Layer_2" xmlns="http://www.w3.org/2000/svg" xmlns:xlink="http://www.w3.org/1999/xlink" x="0px" y="0px"
	 viewBox="0 0 256 256" enable-background="new 0 0 256 256" xml:space="preserve">
<path d="M217.4,174.5L217.4,174.5c-3.3-6.8-11.2-10.3-18.7-8.3l-65.9,18c0,0,3.9,4.8,4.8,6.5c2.4,4.8,1.3,12.8-3.5,17.6
	c-6.4,6.3-16.7,6.4-23.1,0.1l-18.1-17.9l4.8-4.8l18.1,17.9c3.7,3.7,9.8,3.7,13.5,0c3.7-3.7,3.7-9.7,0-13.4l-32.1-31.7H37v56.1h34.8
	l47.2,19.6c7.1,2.9,15.2,2.5,21.9-1.1l69.9-38.1C218.2,190.9,221.1,182,217.4,174.5z"/>
<g>
	<polyline points="132.5,72.7 197,55.3 197,137.9 132.5,155.3 	"/>
	<polyline points="123.5,72.7 59,55.3 59,137.9 123.5,155.3 	"/>
	<polygon points="128,27.7 197.2,46.4 128,65.1 58.8,46.4 	"/>
</g>
</svg>
